# Vertices
v 0.0 0.0 0.0 
v 0.0 1.0 0.0  
v 1.0 1.0 0.0  
v 1.0 0.0 0.0  
v 0.0 0.0 1.0  
v 0.0 1.0 1.0  
v 1.0 1.0 1.0  
v 1.0 0.0 1.0  

# Normal vectors
# One for each face. Shared by all vertices in that face.
vn  1.0  0.0  0.0  
vn -1.0  0.0  0.0  
vn  0.0  1.0  0.0  
vn  0.0 -1.0  0.0  
vn  0.0  0.0  1.0  
vn  0.0  0.0 -1.0  

# Faces v/vt/vn
#   3-------2
#   | -     |
#   |   #   |  Each face = 2 triangles (ccw)
#   |     - |            = 1-2-3 + 1-3-4
#   4-------1

# Face 1: cghd = cgh + chd
f 3/0/1 7/0/1 8/0/1
f 3/0/1 8/0/1 4/0/1

# Face 2: aefb = aef + afb
f 1/0/2 5/0/2 6/0/2
f 1/0/2 6/0/2 2/0/2

# Face 3: gcbf = gcb + gbf
f 7/0/3 3/0/3 2/0/3
f 7/0/3 2/0/3 6/0/3

# Face 4: dhea = dhe + dea
f 4/0/4 8/0/4 5/0/4
f 4/0/4 5/0/4 1/0/4

# Face 5: hgfe = hgf + hfe
f 8/0/5 7/0/5 6/0/5
f 8/0/5 6/0/5 5/0/5

# Face 6: cdab = cda + cab
f 3/0/6 4/0/6 1/0/6
f 3/0/6 1/0/6 2/0/6